<svg id="visual" viewBox="0 0 900 600" width="900" height="600" xmlns="http://www.w3.org/2000/svg" xmlns:xlink="http://www.w3.org/1999/xlink" version="1.1"><path d="M0 85L13.7 81C27.3 77 54.7 69 82 75C109.3 81 136.7 101 163.8 99C191 97 218 73 245.2 65C272.3 57 299.7 65 327 64C354.3 63 381.7 53 409 50C436.3 47 463.7 51 491 59C518.3 67 545.7 79 573 77C600.3 75 627.7 59 654.8 56C682 53 709 63 736.2 73C763.3 83 790.7 93 818 100C845.3 107 872.7 111 886.3 113L900 115L900 0L886.3 0C872.7 0 845.3 0 818 0C790.7 0 763.3 0 736.2 0C709 0 682 0 654.8 0C627.7 0 600.3 0 573 0C545.7 0 518.3 0 491 0C463.7 0 436.3 0 409 0C381.7 0 354.3 0 327 0C299.7 0 272.3 0 245.2 0C218 0 191 0 163.8 0C136.7 0 109.3 0 82 0C54.7 0 27.3 0 13.7 0L0 0Z" fill="#011ff7"></path><path d="M0 175L13.7 169C27.3 163 54.7 151 82 157C109.3 163 136.7 187 163.8 179C191 171 218 131 245.2 116C272.3 101 299.7 111 327 112C354.3 113 381.7 105 409 107C436.3 109 463.7 121 491 126C518.3 131 545.7 129 573 128C600.3 127 627.7 127 654.8 127C682 127 709 127 736.2 139C763.3 151 790.7 175 818 180C845.3 185 872.7 171 886.3 164L900 157L900 113L886.3 111C872.7 109 845.3 105 818 98C790.7 91 763.3 81 736.2 71C709 61 682 51 654.8 54C627.7 57 600.3 73 573 75C545.7 77 518.3 65 491 57C463.7 49 436.3 45 409 48C381.7 51 354.3 61 327 62C299.7 63 272.3 55 245.2 63C218 71 191 95 163.8 97C136.7 99 109.3 79 82 73C54.7 67 27.3 75 13.7 79L0 83Z" fill="#005aff"></path><path d="M0 253L13.7 251C27.3 249 54.7 245 82 258C109.3 271 136.7 301 163.8 286C191 271 218 211 245.2 195C272.3 179 299.7 207 327 221C354.3 235 381.7 235 409 238C436.3 241 463.7 247 491 257C518.3 267 545.7 281 573 272C600.3 263 627.7 231 654.8 228C682 225 709 251 736.2 268C763.3 285 790.7 293 818 293C845.3 293 872.7 285 886.3 281L900 277L900 155L886.3 162C872.7 169 845.3 183 818 178C790.7 173 763.3 149 736.2 137C709 125 682 125 654.8 125C627.7 125 600.3 125 573 126C545.7 127 518.3 129 491 124C463.7 119 436.3 107 409 105C381.7 103 354.3 111 327 110C299.7 109 272.3 99 245.2 114C218 129 191 169 163.8 177C136.7 185 109.3 161 82 155C54.7 149 27.3 161 13.7 167L0 173Z" fill="#0081ff"></path><path d="M0 427L13.7 428C27.3 429 54.7 431 82 440C109.3 449 136.7 465 163.8 459C191 453 218 425 245.2 419C272.3 413 299.7 429 327 418C354.3 407 381.7 369 409 358C436.3 347 463.7 363 491 393C518.3 423 545.7 467 573 460C600.3 453 627.7 395 654.8 372C682 349 709 361 736.2 382C763.3 403 790.7 433 818 446C845.3 459 872.7 455 886.3 453L900 451L900 275L886.3 279C872.7 283 845.3 291 818 291C790.7 291 763.3 283 736.2 266C709 249 682 223 654.8 226C627.7 229 600.3 261 573 270C545.7 279 518.3 265 491 255C463.7 245 436.3 239 409 236C381.7 233 354.3 233 327 219C299.7 205 272.3 177 245.2 193C218 209 191 269 163.8 284C136.7 299 109.3 269 82 256C54.7 243 27.3 247 13.7 249L0 251Z" fill="#00a0ff"></path><path d="M0 601L13.7 601C27.3 601 54.7 601 82 601C109.3 601 136.7 601 163.8 601C191 601 218 601 245.2 601C272.3 601 299.7 601 327 601C354.3 601 381.7 601 409 601C436.3 601 463.7 601 491 601C518.3 601 545.7 601 573 601C600.3 601 627.7 601 654.8 601C682 601 709 601 736.2 601C763.3 601 790.7 601 818 601C845.3 601 872.7 601 886.3 601L900 601L900 449L886.3 451C872.7 453 845.3 457 818 444C790.7 431 763.3 401 736.2 380C709 359 682 347 654.8 370C627.7 393 600.3 451 573 458C545.7 465 518.3 421 491 391C463.7 361 436.3 345 409 356C381.7 367 354.3 405 327 416C299.7 427 272.3 411 245.2 417C218 423 191 451 163.8 457C136.7 463 109.3 447 82 438C54.7 429 27.3 427 13.7 426L0 425Z" fill="#00bbff"></path></svg>